<svg width="120" height="23" viewBox="0 0 120 23" fill="none" xmlns="http://www.w3.org/2000/svg">
<path d="M6.336 1.368C7.648 1.368 8.968 1.384 10.296 1.416C11.624 1.432 12.832 1.512 13.92 1.656L13.488 4.272H7.632C7.12 4.272 6.744 4.368 6.504 4.56C6.264 4.736 6.112 5.072 6.048 5.568L4.296 18H0.624L2.472 4.68C2.632 3.64 3.056 2.832 3.744 2.256C4.432 1.664 5.296 1.368 6.336 1.368ZM2.376 8.424H12L11.664 10.968H2.016L2.376 8.424ZM17.8564 6.144L17.8804 8.976L18.1924 9.312L16.9924 18H13.4404L15.0964 6.144H17.8564ZM23.6644 5.832L22.8964 9.12H22.0324C21.4724 9.12 20.8644 9.248 20.2084 9.504C19.5684 9.744 18.7604 10.112 17.7844 10.608L17.6404 8.52C18.5844 7.64 19.5044 6.976 20.4004 6.528C21.2964 6.064 22.1444 5.832 22.9444 5.832H23.6644ZM30.7659 5.832C32.2219 5.832 33.3419 5.992 34.1259 6.312C34.9259 6.616 35.4619 7.08 35.7339 7.704C36.0059 8.312 36.0699 9.064 35.9259 9.96C35.8139 10.696 35.5659 11.28 35.1819 11.712C34.8139 12.128 34.3019 12.44 33.6459 12.648C32.9899 12.856 32.1579 13 31.1499 13.08L25.1019 13.584L25.3659 11.616L30.4539 11.112C30.8859 11.064 31.2379 11 31.5099 10.92C31.7979 10.824 32.0219 10.68 32.1819 10.488C32.3419 10.28 32.4459 9.992 32.4939 9.624C32.5579 9.24 32.5339 8.952 32.4219 8.76C32.3099 8.568 32.1099 8.448 31.8219 8.4C31.5339 8.336 31.1499 8.312 30.6699 8.328C30.1739 8.328 29.7579 8.376 29.4219 8.472C29.0859 8.568 28.8059 8.744 28.5819 9C28.3579 9.24 28.1739 9.592 28.0299 10.056C27.8859 10.504 27.7499 11.088 27.6219 11.808C27.4619 12.848 27.4379 13.632 27.5499 14.16C27.6619 14.688 27.9099 15.04 28.2939 15.216C28.6779 15.392 29.2139 15.48 29.9019 15.48C30.2859 15.48 30.7499 15.472 31.2939 15.456C31.8379 15.424 32.3899 15.392 32.9499 15.36C33.5259 15.312 34.0459 15.264 34.5099 15.216L34.7499 17.424C34.2699 17.632 33.7259 17.8 33.1179 17.928C32.5099 18.056 31.8939 18.144 31.2699 18.192C30.6459 18.256 30.0619 18.288 29.5179 18.288C27.9339 18.288 26.7019 18.048 25.8219 17.568C24.9579 17.088 24.3819 16.376 24.0939 15.432C23.8059 14.472 23.7419 13.296 23.9019 11.904C24.0459 10.672 24.2859 9.664 24.6219 8.88C24.9739 8.096 25.4219 7.488 25.9659 7.056C26.5259 6.608 27.2059 6.296 28.0059 6.12C28.8059 5.928 29.7259 5.832 30.7659 5.832ZM43.1368 5.832C43.7288 5.832 44.3608 5.856 45.0328 5.904C45.7048 5.952 46.3528 6.008 46.9768 6.072C47.6168 6.136 48.1688 6.208 48.6328 6.288L48.2968 8.496C47.5288 8.48 46.7608 8.472 45.9928 8.472C45.2408 8.456 44.4728 8.44 43.6888 8.424C43.0808 8.424 42.5928 8.44 42.2248 8.472C41.8728 8.488 41.6168 8.552 41.4568 8.664C41.2968 8.76 41.2008 8.92 41.1688 9.144C41.1368 9.432 41.2168 9.656 41.4088 9.816C41.6168 9.976 41.9688 10.144 42.4648 10.32L45.4168 11.376C46.0408 11.6 46.5528 11.864 46.9528 12.168C47.3528 12.472 47.6328 12.848 47.7928 13.296C47.9688 13.744 48.0168 14.288 47.9368 14.928C47.8248 15.888 47.5208 16.608 47.0248 17.088C46.5448 17.552 45.8968 17.864 45.0808 18.024C44.2808 18.184 43.3048 18.264 42.1528 18.264C41.5288 18.264 40.9448 18.248 40.4008 18.216C39.8728 18.2 39.3208 18.152 38.7448 18.072C38.1848 18.008 37.5528 17.928 36.8488 17.832L37.1608 15.624C37.4648 15.64 37.8328 15.656 38.2648 15.672C38.7128 15.672 39.1768 15.68 39.6568 15.696C40.1528 15.696 40.6168 15.696 41.0488 15.696C41.9608 15.68 42.6568 15.648 43.1368 15.6C43.6168 15.552 43.9528 15.472 44.1448 15.36C44.3528 15.232 44.4808 15.048 44.5288 14.808C44.5608 14.6 44.5288 14.44 44.4328 14.328C44.3528 14.216 44.2008 14.112 43.9768 14.016C43.7688 13.92 43.4808 13.808 43.1128 13.68L40.2328 12.6C39.5768 12.36 39.0488 12.072 38.6488 11.736C38.2648 11.4 38.0008 10.992 37.8568 10.512C37.7288 10.032 37.7048 9.488 37.7848 8.88C37.8808 8.144 38.1208 7.56 38.5048 7.128C38.8888 6.68 39.4568 6.352 40.2088 6.144C40.9608 5.936 41.9368 5.832 43.1368 5.832ZM59.5131 5.832C60.6171 5.832 61.4331 6.12 61.9611 6.696C62.5051 7.272 62.6971 8.104 62.5371 9.192L61.2891 18H57.7371L58.8651 10.152C58.9291 9.64 58.8971 9.296 58.7691 9.12C58.6411 8.928 58.3851 8.832 58.0011 8.832C57.4251 8.832 56.8411 9 56.2491 9.336C55.6571 9.656 54.9371 10.152 54.0891 10.824L53.6811 9.024C54.7531 7.936 55.7691 7.136 56.7291 6.624C57.7051 6.096 58.6331 5.832 59.5131 5.832ZM55.6491 1.2L55.0731 5.376C54.9771 6.128 54.8251 6.864 54.6171 7.584C54.4251 8.304 54.2491 8.872 54.0891 9.288L54.4491 9.576L53.2971 18H49.7451L52.0971 1.2H55.6491ZM71.2643 0.696C71.5843 0.696 71.9763 0.704 72.4403 0.719999C72.9203 0.735999 73.4003 0.767999 73.8803 0.816C74.3763 0.847999 74.7923 0.903999 75.1283 0.983999L74.6003 3.24H72.4643C71.8403 3.24 71.3843 3.36 71.0963 3.6C70.8083 3.824 70.6163 4.264 70.5203 4.92L68.4563 19.104C68.3123 20.192 67.9203 21.064 67.2803 21.72C66.6403 22.376 65.6563 22.704 64.3283 22.704C63.9283 22.704 63.4642 22.68 62.9362 22.632C62.4082 22.584 61.7922 22.52 61.0882 22.44L61.6162 20.16H63.1282C63.7523 20.16 64.2003 20.04 64.4723 19.8C64.7603 19.576 64.9523 19.144 65.0483 18.504L67.0643 4.32C67.2403 3.2 67.6483 2.32 68.2883 1.68C68.9443 1.024 69.9363 0.696 71.2643 0.696ZM73.6163 6.144L73.2803 8.472H64.4482L64.7363 6.264L66.8723 6.144H73.6163ZM80.8502 5.832C82.3062 5.832 83.4742 6.048 84.3542 6.48C85.2342 6.896 85.8262 7.568 86.1302 8.496C86.4502 9.424 86.4982 10.672 86.2742 12.24C86.0662 13.728 85.7062 14.92 85.1942 15.816C84.6982 16.696 83.9942 17.328 83.0822 17.712C82.1702 18.096 80.9862 18.288 79.5302 18.288C78.0902 18.288 76.9222 18.08 76.0262 17.664C75.1462 17.248 74.5382 16.576 74.2022 15.648C73.8822 14.72 73.8262 13.488 74.0342 11.952C74.2582 10.448 74.6182 9.256 75.1142 8.376C75.6102 7.48 76.3222 6.832 77.2502 6.432C78.1942 6.032 79.3942 5.832 80.8502 5.832ZM80.8022 8.424C80.1622 8.424 79.6422 8.528 79.2422 8.736C78.8582 8.944 78.5462 9.32 78.3062 9.864C78.0822 10.408 77.8982 11.2 77.7542 12.24C77.6262 13.152 77.5862 13.864 77.6342 14.376C77.6982 14.888 77.8902 15.24 78.2102 15.432C78.5302 15.624 79.0022 15.72 79.6262 15.72C80.2662 15.72 80.7782 15.616 81.1622 15.408C81.5462 15.184 81.8502 14.8 82.0742 14.256C82.2982 13.712 82.4822 12.944 82.6262 11.952C82.7542 11.008 82.7862 10.288 82.7222 9.792C82.6742 9.28 82.4902 8.928 82.1702 8.736C81.8662 8.528 81.4102 8.424 80.8022 8.424ZM95.0064 5.832C96.4624 5.832 97.6304 6.048 98.5104 6.48C99.3904 6.896 99.9824 7.568 100.286 8.496C100.606 9.424 100.654 10.672 100.43 12.24C100.222 13.728 99.8624 14.92 99.3504 15.816C98.8544 16.696 98.1504 17.328 97.2384 17.712C96.3264 18.096 95.1424 18.288 93.6864 18.288C92.2464 18.288 91.0784 18.08 90.1824 17.664C89.3024 17.248 88.6944 16.576 88.3584 15.648C88.0384 14.72 87.9824 13.488 88.1904 11.952C88.4144 10.448 88.7744 9.256 89.2704 8.376C89.7664 7.48 90.4784 6.832 91.4064 6.432C92.3504 6.032 93.5504 5.832 95.0064 5.832ZM94.9584 8.424C94.3184 8.424 93.7984 8.528 93.3984 8.736C93.0144 8.944 92.7024 9.32 92.4624 9.864C92.2384 10.408 92.0544 11.2 91.9104 12.24C91.7824 13.152 91.7424 13.864 91.7904 14.376C91.8544 14.888 92.0464 15.24 92.3664 15.432C92.6864 15.624 93.1584 15.72 93.7824 15.72C94.4224 15.72 94.9344 15.616 95.3184 15.408C95.7024 15.184 96.0064 14.8 96.2304 14.256C96.4544 13.712 96.6384 12.944 96.7824 11.952C96.9104 11.008 96.9424 10.288 96.8784 9.792C96.8304 9.28 96.6464 8.928 96.3264 8.736C96.0224 8.528 95.5664 8.424 94.9584 8.424ZM107.795 5.832C108.883 5.832 109.947 5.904 110.987 6.048C112.027 6.192 112.883 6.416 113.555 6.72L113.051 8.256C112.331 8.24 111.675 8.232 111.083 8.232C110.491 8.216 109.891 8.208 109.283 8.208C108.723 8.208 108.251 8.256 107.867 8.352C107.499 8.432 107.203 8.6 106.979 8.856C106.755 9.096 106.571 9.456 106.427 9.936C106.283 10.416 106.155 11.056 106.043 11.856C105.931 12.704 105.875 13.384 105.875 13.896C105.875 14.392 105.963 14.752 106.139 14.976C106.315 15.2 106.611 15.312 107.027 15.312C107.715 15.296 108.363 15.088 108.971 14.688C109.595 14.288 110.267 13.752 110.987 13.08L111.635 14.616C111.395 14.936 111.075 15.304 110.675 15.72C110.291 16.136 109.835 16.544 109.307 16.944C108.795 17.328 108.235 17.648 107.627 17.904C107.019 18.16 106.371 18.288 105.683 18.288C104.787 18.288 104.059 18.072 103.499 17.64C102.955 17.192 102.587 16.496 102.395 15.552C102.219 14.592 102.235 13.352 102.443 11.832C102.619 10.584 102.859 9.568 103.163 8.784C103.483 7.984 103.867 7.376 104.315 6.96C104.779 6.528 105.299 6.232 105.875 6.072C106.451 5.912 107.091 5.832 107.795 5.832ZM115.763 1.2L113.411 18H110.603V15.072L110.291 14.856L111.395 6.648L111.611 6.264C111.611 5.848 111.627 5.44 111.659 5.04C111.691 4.64 111.739 4.216 111.803 3.768L112.211 1.2H115.763ZM118.588 14.352C119.02 14.352 119.34 14.464 119.548 14.688C119.756 14.896 119.828 15.224 119.764 15.672L119.62 16.824C119.572 17.224 119.436 17.52 119.212 17.712C119.004 17.904 118.684 18 118.252 18H117.436C116.524 18 116.124 17.56 116.236 16.68L116.38 15.528C116.492 14.744 116.956 14.352 117.772 14.352H118.588Z" fill="#011255"/>
</svg>
