<svg width="110" height="110" viewBox="0 0 110 110" fill="none" xmlns="http://www.w3.org/2000/svg">
<rect width="110" height="110" rx="55" fill="#FFB600"/>
<path d="M20 62.25V82.3849C20 87.6957 24.3052 92.001 29.616 92.001H82.884C88.1948 92.001 92.5 87.6957 92.5 82.3849V62.25C92.5 42.2297 76.2703 26 56.25 26C36.2297 26 20 42.2297 20 62.25Z" fill="#FFCC7F"/>
<path d="M75.5006 71.5008C75.1006 78.3008 86.3339 80.0008 92.0005 80.5008V71.0008C86.5005 70.3341 75.6183 69.5008 75.5006 71.5008Z" fill="#FF511B"/>
<path d="M88.1982 83.9229H20.1981C12.6179 34.1102 42.5623 21.5614 66.1982 27.276C54.3649 26.325 29.8982 29.5229 26.6982 49.9229C22.6982 75.4229 79.1981 66.9229 88.1982 73.9229V83.9229Z" fill="#EF9D4F"/>
<path d="M91.9989 84.5009H23.9989C23.0804 78.465 22.7128 72.9763 22.8183 68.0009L90.4547 74.3558C91.3635 74.4412 92.0976 75.1307 92.1964 76.0382C92.4244 78.1314 92.6863 81.9134 91.9989 84.5009Z" fill="#00D85F"/>
<path d="M86 71.5002H92C92 70.4996 95.5 70.0009 96 66.5009C96.4 63.7009 89.5 64.0004 86 64.5002C82.8333 65.1669 75.5 66.3002 71.5 65.5002C57.5 67.0002 46.5 63.5002 42 63.5002C37.5 63.5002 34 65.0002 25.5 63.5002C17 62.0002 14 72.0002 28.5 71.0002C43 70.0002 82 71.5002 86 71.5002Z" fill="#7C3B17"/>
<path d="M28.5 71C19.4649 71.6231 17.2245 67.9753 18.8755 65.5C18.917 66.8333 20.4 69.4 26 69C33 68.5 51.5 68.9778 53.5 70.7389C43.7885 70.6 34.2308 70.6048 28.5 71Z" fill="#511E07"/>
<path d="M75.0009 75.5001C81.4009 79.1001 89.5 79.5009 92.5 79.5009C92.5 80.5009 92.5245 82.6725 92 83.5009C83.9998 90.2509 64.0009 79.5001 60.5009 82.5001C57.0009 85.5001 35.0009 83.0001 25.5009 83.5001C16.0009 84.0001 18.5009 78.5001 21.0009 78.0001C23.5009 77.5001 34.0009 76.5001 40.5009 77.5001C47.0009 78.5001 67.0009 71.0001 75.0009 75.5001Z" fill="#FFFF54"/>
<path d="M45.9995 75.0005C49.4995 79.0005 37.4995 84.6822 27.4996 81.5005C19.7587 79.0374 18.9556 76.2893 21.9995 74.0005C31.4995 67.2857 42.4995 71.0005 45.9995 75.0005Z" fill="#FF511B"/>
<path d="M48 77.5C48 81 70 81.5 73.5 71.5C77 61.5 48 63 48 77.5Z" fill="#FF511B"/>
<circle cx="88" cy="52.5" r="3" fill="white"/>
<circle cx="85.5" cy="44" r="1.5" fill="white"/>
<path d="M13 56.5C14.8333 44.8333 24.7 20.8 49.5 18" stroke="#D7905E"/>
<path d="M13.5 34.5C14.5 32 17.5 26.3 21.5 23.5" stroke="#D7905E"/>
<path d="M29.6158 92.001H82.8837C87.6441 92.001 91.5966 88.5418 92.3647 84H20.1348C20.9029 88.5418 24.8553 92.001 29.6158 92.001Z" fill="#FFCC7F"/>
</svg>
