<svg width="110" height="110" viewBox="0 0 110 110" fill="none" xmlns="http://www.w3.org/2000/svg">
<rect width="110" height="110" rx="55" fill="#3351CD"/>
<mask id="mask0_1_682" style="mask-type:alpha" maskUnits="userSpaceOnUse" x="5" y="5" width="100" height="100">
<rect x="5" y="5" width="100" height="100" rx="50" fill="#B8BEFB"/>
</mask>
<g mask="url(#mask0_1_682)">
<path d="M8 70.5C14.5 84.5 42.6 109.3 99 92.5M8 55.5C10.1689 63.3721 17.9371 75.7829 31.2193 85M88.5 9C91.6667 11.8333 98.2 18.6 99 23M80 9C85.1667 12.6667 96.2 24.1 99 40.5M9 20.5C10 18.1667 13.1 12.6 17.5 9" stroke="#9397C8" stroke-linecap="square"/>
</g>
<path d="M15 25L57.1734 95.9069C58.6978 98.4699 62.3897 98.5237 63.9881 96.0062L97.2336 43.6446C98.7767 41.2142 97.3242 37.9986 94.4806 37.5496L15 25Z" fill="#F2D284"/>
<path d="M92.6293 50.8963L63.9881 96.0062C62.3897 98.5237 58.6978 98.4699 57.1734 95.9069C66.617 84.5311 84.0697 63.0055 92.6293 50.8963L97.2336 43.6447C96.5219 45.17 94.8842 47.7064 92.6293 50.8963Z" fill="#F57820"/>
<path d="M15 25L58.0887 97.4459C59.1895 99.2966 61.8587 99.326 63 97.5L15 25Z" fill="#BB5820"/>
<circle cx="46.5" cy="58.5" r="7.5" fill="#FF6E4D"/>
<path d="M39 58.5C39 62.6421 42.3579 66 46.5 66C47.3766 66 48.2181 65.8496 49 65.5732C38.6667 66.2318 37.75 53.5 46.5 51C42.3579 51 39 54.3579 39 58.5Z" fill="#E7593F"/>
<circle cx="43.1666" cy="57.6667" r="0.833333" fill="#FFFDFD"/>
<circle cx="49.8333" cy="58.5" r="0.833333" fill="#FFFDFD"/>
<circle cx="33.75" cy="38.25" r="6.25" fill="#FF6E4D"/>
<path d="M27.5 38.2505C27.5 41.7022 30.2982 44.5005 33.75 44.5005C34.8034 44.5005 35.796 44.2398 36.6667 43.7796C27.6667 43.5362 28.4722 36.6585 30 33.25C28.4819 34.3903 27.5 36.2057 27.5 38.2505Z" fill="#D04530"/>
<circle cx="32.5" cy="37.8333" r="0.833333" fill="#FFC0B2"/>
<circle cx="32.5" cy="34.5" r="0.833333" fill="#FFC0B2"/>
<ellipse cx="58.6334" cy="41.3269" rx="5.00075" ry="4" transform="rotate(-10.2619 58.6334 41.3269)" fill="#FF6E4D"/>
<path d="M53.7126 42.2178C54.1062 44.3916 56.6283 45.7549 59.346 45.2629C52.0227 44.2732 55 38.8124 57.9208 37.3909C55.2031 37.8829 53.319 40.044 53.7126 42.2178Z" fill="#DD5138"/>
<circle cx="58" cy="41.5" r="1" fill="#FFA48E"/>
<circle cx="63.5" cy="58" r="1.5" fill="#BB5820"/>
</svg>
