<svg width="110" height="110" viewBox="0 0 110 110" fill="none" xmlns="http://www.w3.org/2000/svg">
<rect width="110" height="110" rx="55" fill="#2DB854"/>
<path d="M12 44.0004L29.5 61.5004L32.5 60.5004L14 42.0004C13.4477 41.4481 12.5523 41.4481 12 42.0004C11.4477 42.5527 11.4477 43.4481 12 44.0004Z" fill="#E8E7E4" stroke="#B3AFA1" stroke-width="0.5"/>
<path d="M36.5 58.7786C26.5 59.5574 21.3333 65.9176 20 69.0004H90C88.8 60.6004 83.5 57.7123 81 57.3183C78 52.4507 65 55.3713 63 57.805C50 43.6892 36.5 55.3713 36.5 58.7786Z" fill="#FFCC47"/>
<path d="M63.0005 57.8056C65.0005 59.4281 68.8005 63.9387 68.0005 69.0009M81.0005 57.3188C79.6672 58.7791 76.6005 63.1599 75.0005 69.0009M23.5005 69.0009C25.0005 65.2692 30.9005 58.2924 42.5005 60.2394M42.5005 60.2394C40.0005 61.0506 34.2005 63.9387 31.0005 69.0009M42.5005 60.2394C45.8338 57.4811 54.2005 53.6195 61.0005 60.2394M42.5005 60.2394C43.5124 60.5677 45.241 61.4111 47.1165 62.8703M61.0005 60.2394L55.5005 69.0009H52.5005C50.9195 66.3075 48.948 64.2953 47.1165 62.8703M61.0005 60.2394C62.8338 61.5374 66.3005 65.1069 65.5005 69.0009M38.2596 69.0009C39.4173 67.3476 42.8094 63.8069 47.1165 62.8703M79.5005 69.0009C80.0536 66.9817 82.2358 63.0861 86.8467 61.1505M83.0005 69.0009C83.9314 66.8864 86.5272 64.8304 88.5005 63.5602" stroke="#B89332" stroke-width="0.5"/>
<path fill-rule="evenodd" clip-rule="evenodd" d="M19 69.0004H52H66.5H89.5C89.5 82.9596 79.6372 94.6152 66.5 97.3789V98.0004H60.5H52H48C31.9837 98.0004 19 85.0166 19 69.0004Z" fill="white"/>
<path d="M21 71.5004C23.6667 77.167 31.5 88.7004 41.5 89.5004" stroke="#D4D4D4"/>
<path d="M40 96.0004H69C69 98.2095 67.2091 100 65 100H44C41.7909 100 40 98.2095 40 96.0004Z" fill="#DE6043"/>
<path d="M35.5005 49.4991C38.1672 46.4991 45.9005 41.7991 55.5005 46.9991" stroke="#F5C954"/>
<path d="M62.5001 5C68.0001 11.5 51.0001 19.5 59.0001 25C67.0001 30.5 70.0002 32.5 63.5002 40C57.0002 47.5 60.0002 51.5 64.0002 55.5C65.0002 51.5 66.5002 44.5 71.0002 44C75.5002 43.5 61.5002 40 57.5002 32.5C53.5002 25 62.0002 25 65.0002 21C68.0002 17 66.9998 12.5 66 12" stroke="#F5C954"/>
<path d="M68 51.5004C68.8333 50.0004 71.6 47.1004 76 47.5004" stroke="#C9AF5D"/>
<path d="M80.5 47.5004C81.8333 48.5004 84.6 50.7004 85 51.5004" stroke="#C9AF5D"/>
</svg>
